<svg width="1200" height="800" viewBox="0 0 1200 800" fill="none" xmlns="http://www.w3.org/2000/svg">
  <defs>
    <linearGradient id="bg" x1="600" y1="0" x2="600" y2="800" gradientUnits="userSpaceOnUse">
      <stop stop-color="#4CA1AF"/>
      <stop offset="1" stop-color="#2C3E50"/>
    </linearGradient>
  </defs>
  <rect width="1200" height="800" fill="url(#bg)"/>
  <rect y="470" width="1200" height="330" fill="#1E4A72"/>
  <rect x="180" y="330" width="76" height="220" rx="10" fill="#1B2C42"/>
  <rect x="278" y="290" width="82" height="260" rx="10" fill="#22374F"/>
  <rect x="385" y="360" width="70" height="190" rx="10" fill="#16293D"/>
  <rect x="980" y="350" width="56" height="190" rx="8" fill="#1A334F"/>
  <rect x="1048" y="300" width="62" height="240" rx="8" fill="#244A6C"/>
  <path d="M470 510L640 510L710 560L520 560L470 510Z" fill="#F99D1C"/>
  <rect x="430" y="540" width="320" height="90" rx="12" fill="#E85D04"/>
  <path d="M720 370L920 370L980 500L760 500L720 370Z" fill="#F4D35E"/>
  <rect x="760" y="500" width="240" height="40" rx="10" fill="#EE964B"/>
  <path d="M0 620C170 590 330 600 530 630C780 670 950 670 1200 630V800H0V620Z" fill="#15314A"/>
</svg>
