<svg width="2000" height="1200" viewBox="0 0 2000 1200" fill="none" xmlns="http://www.w3.org/2000/svg">
  <defs>
    <linearGradient id="g1" x1="1000" y1="0" x2="1000" y2="1200" gradientUnits="userSpaceOnUse">
      <stop stop-color="#0A2E4E"/>
      <stop offset="0.42" stop-color="#1E6A8F"/>
      <stop offset="1" stop-color="#3DA58E"/>
    </linearGradient>
    <linearGradient id="sun" x1="320" y1="140" x2="320" y2="340" gradientUnits="userSpaceOnUse">
      <stop stop-color="#FFE88A"/>
      <stop offset="1" stop-color="#FDBA2D"/>
    </linearGradient>
  </defs>
  <rect width="2000" height="1200" fill="url(#g1)"/>
  <circle cx="320" cy="200" r="100" fill="url(#sun)"/>
  <ellipse cx="320" cy="210" rx="180" ry="86" fill="#FFD971" opacity="0.25"/>

  <path d="M0 640C180 580 360 560 550 620C760 690 900 690 1130 620C1320 560 1540 550 2000 660V1200H0V640Z" fill="#255B3E"/>
  <path d="M150 690L640 290L1130 690H920L640 410L360 690H150Z" fill="#1A4632"/>
  <path d="M1000 700L1380 360L1760 700H1590L1380 470L1170 700H1000Z" fill="#163C2B"/>

  <path d="M0 780C260 730 470 730 740 790C980 845 1270 850 2000 760V1200H0V780Z" fill="#0F2944" opacity="0.7"/>
  <rect x="1320" y="540" width="44" height="190" rx="10" fill="#1A3B57"/>
  <rect x="1386" y="505" width="52" height="225" rx="10" fill="#214B6D"/>
  <rect x="1462" y="465" width="60" height="265" rx="10" fill="#2A5880"/>
  <rect x="1542" y="530" width="48" height="200" rx="10" fill="#1E4566"/>
</svg>
